<svg width="61" height="48" viewBox="0 0 61 48" fill="none" xmlns="http://www.w3.org/2000/svg">
<path fill-rule="evenodd" clip-rule="evenodd" d="M4.26237 0C3.21902 -5.5663e-07 2.27447 0.436771 1.60465 1.21516C1.01657 1.89855 0.758873 2.70337 0.632042 3.34204C0.379443 4.61403 0.469463 6.17427 0.68232 7.72635C1.11994 10.9173 2.23672 15.1158 3.61396 19.4037C5.00047 23.7204 6.68937 28.2451 8.32381 32.1276C9.44187 34.7834 10.5687 37.2218 11.5834 39.1031C8.93609 40.2884 6.45084 41.7707 4.17056 43.5075C3.07129 44.3447 2.8589 45.9146 3.69616 47.0139C4.53343 48.1132 6.10331 48.3256 7.20258 47.4883C12.6801 43.3163 19.5144 40.8403 26.9343 40.8403C34.3542 40.8403 41.1885 43.3163 46.666 47.4883C47.7653 48.3256 49.3352 48.1132 50.1725 47.0139C51.0097 45.9146 50.7973 44.3448 49.6981 43.5075C47.4097 41.7645 44.9149 40.2779 42.2571 39.0905C44.1119 34.6464 45.5582 32.2075 46.4946 30.9132C46.5856 30.7875 46.6712 30.6733 46.7513 30.5699C49.1196 33.0598 51.175 35.1307 52.8171 36.6149C54.0763 37.753 55.3368 38.7771 56.4145 39.2685C56.8275 39.4569 58.0345 39.967 59.3028 39.3658C60.853 38.631 61 37.0635 61 36.4722C61 30.454 59.6374 21.574 55.3277 13.9199C53.0035 9.79211 49.6516 7.43132 45.8903 7.66735C42.2472 7.89596 39.2565 10.513 37.4532 13.9976C35.6628 17.4571 32.0752 26.4743 29.0243 35.6856C29.0018 35.7536 28.9823 35.8219 28.9659 35.8903C28.2932 35.8545 27.6158 35.8363 26.9343 35.8363C25.7321 35.8363 24.543 35.8928 23.3694 36.0032C23.1098 26.9539 20.7353 18.431 17.4957 12.0045C15.78 8.6009 13.7755 5.69342 11.6282 3.59859C9.53292 1.55454 7.00116 2.0082e-06 4.26237 0ZM18.3824 36.8136C18.2458 28.2623 16.0201 20.1938 13.0273 14.2569C11.4808 11.189 9.77565 8.78209 8.13388 7.18046C7.11017 6.18177 6.2169 5.59525 5.48468 5.28748C5.49491 5.74211 5.54094 6.32477 5.63991 7.04646C6.0177 9.80118 7.02841 13.6709 8.37823 17.8734C9.71878 22.047 11.3565 26.4346 12.9358 30.186C14.2095 33.2117 15.4004 35.715 16.3325 37.3523C17.0081 37.1541 17.6916 36.9743 18.3824 36.8136ZM5.5663 4.21348C5.56641 4.21365 5.56513 4.21781 5.56209 4.22549C5.56466 4.21716 5.56618 4.21332 5.5663 4.21348ZM41.8973 16.2974C43.2119 13.7572 44.9124 12.7425 46.2037 12.6615C47.3766 12.5879 49.2019 13.2395 50.9674 16.3751C53.9108 21.6025 55.3218 27.6014 55.8003 32.5623C53.3646 30.3123 49.9303 26.6991 45.7479 22.1682C44.8106 21.1528 43.2277 21.0895 42.2124 22.0268C41.197 22.964 41.1337 24.5469 42.0709 25.5623C42.4862 26.0122 42.8956 26.4547 43.2988 26.8892C43.034 27.1951 42.7477 27.5554 42.4405 27.98C41.1947 29.7018 39.5461 32.5642 37.5578 37.3587C36.4025 37.019 35.2242 36.7333 34.0258 36.5045C36.9961 27.6325 40.3382 19.3101 41.8973 16.2974ZM58.4909 34.7157L58.4791 34.7102C58.5653 34.7376 58.5772 34.755 58.4909 34.7157Z" fill="#31353D"/>
</svg>
